<svg width="39" height="39" viewBox="0 0 39 39" fill="none" xmlns="http://www.w3.org/2000/svg">
<path d="M19.5022 1.67593e-06C8.72718 -0.00447388 0 8.95559 0 20.0147C0 28.7599 5.45939 36.1938 13.0625 38.9239C14.0864 39.188 13.9295 38.4406 13.9295 37.9303V34.4618C8.01698 35.1734 7.77734 31.1543 7.38085 30.483C6.57915 29.0777 4.68383 28.7196 5.25025 28.0483C6.59658 27.3367 7.96905 28.2273 9.55938 30.6397C10.7096 32.3896 12.9535 32.0942 14.0907 31.8033C14.3391 30.7515 14.8706 29.8117 15.6026 29.0822C9.4766 27.9543 6.92336 24.1143 6.92336 19.5492C6.92336 17.3338 7.63356 15.2975 9.02782 13.6549C8.13898 10.9472 9.1106 8.62887 9.24131 8.28426C11.7728 8.05153 14.4044 10.1461 14.6092 10.3117C16.047 9.91336 17.6896 9.70301 19.5283 9.70301C21.3757 9.70301 23.0227 9.92231 24.4736 10.3251C24.9659 9.94021 27.4059 8.14104 29.7587 8.36034C29.885 8.70496 30.8349 10.9696 29.9983 13.6415C31.41 15.2885 32.1289 17.3428 32.1289 19.5627C32.1289 24.1367 29.5583 27.9812 23.4148 29.0911C23.941 29.6227 24.3588 30.2566 24.6439 30.9559C24.9289 31.6552 25.0754 32.4058 25.0749 33.1639V38.1989C25.1097 38.6017 25.0749 39 25.7284 39C33.4448 36.3281 39 28.8405 39 20.0192C39 8.95559 30.2685 1.67593e-06 19.5022 1.67593e-06V1.67593e-06Z" fill="#8A733E"/>
</svg>
