<svg width="39" height="39" viewBox="0 0 39 39" fill="none" xmlns="http://www.w3.org/2000/svg">
<g clip-path="url(#clip0)">
<path d="M23.7841 14.5674C22.9578 14.5674 22.346 14.7758 21.867 15.039C21.7902 14.766 21.538 14.5662 21.2406 14.6259H17.6038C17.2443 14.5662 16.953 14.8574 17.0639 15.2353V28.6415C16.953 28.9828 17.2443 29.2753 17.6038 29.2509H21.2406C21.6001 29.2753 21.8914 28.9828 21.8914 28.6232L21.8902 20.521C21.889 20.5173 21.8756 20.1298 22.1205 19.8629C22.3167 19.6508 22.6543 19.5423 23.1211 19.5423C23.8987 19.5423 24.2448 19.8604 24.374 20.5722V28.6232C24.246 28.9828 24.5373 29.2753 24.8968 29.2509H28.7298C29.0893 29.2753 29.3806 28.9828 29.2514 28.6232V20.3016C29.3794 16.0701 26.3654 14.5674 23.7841 14.5674V14.5674ZM28.0778 28.0321H25.5477V20.5722C25.5477 19.1328 24.6177 18.2407 23.1223 18.2407C22.2765 18.2407 21.6184 18.4893 21.165 18.9793C20.5349 19.6618 20.5837 20.5271 20.719 20.7196V28.0321H18.2547V15.869H20.5898V16.2785C20.5888 16.4005 20.6223 16.5203 20.6864 16.6241C20.7504 16.7279 20.8425 16.8115 20.952 16.8654C21.0614 16.9192 21.1839 16.9411 21.3052 16.9285C21.4265 16.9159 21.5419 16.8693 21.6379 16.794L21.8085 16.6624C22.3021 16.2736 22.8128 15.8702 23.7853 15.8702C24.792 15.8702 28.079 16.1908 28.079 20.3028V28.0321H28.0778Z" fill="#8A733E"/>
<path d="M13.4067 8.49023C12.0392 8.49023 10.9277 9.60173 10.9277 10.9692C10.9277 12.3366 12.0392 13.4481 13.4067 13.4481C14.7741 13.4481 15.8856 12.3366 15.8856 10.9692C15.8856 9.60173 14.7741 8.49023 13.4067 8.49023ZM13.4067 12.1465C12.7583 12.1465 12.2294 11.6175 12.2294 10.9692C12.2294 10.3208 12.7583 9.79186 13.4067 9.79186C14.055 9.79186 14.584 10.3208 14.584 10.9692C14.584 11.6175 14.055 12.1465 13.4067 12.1465Z" fill="#8A733E"/>
<path d="M15.1466 14.5654H11.5293C11.1698 14.5654 10.8785 14.8567 10.9687 15.2345V28.6408C10.8785 28.982 11.1698 29.2745 11.5293 29.2501H15.1466C15.5061 29.2745 15.7974 28.982 15.7974 28.6225V15.2162C15.7974 15.0436 15.7288 14.8781 15.6068 14.756C15.4847 14.634 15.3192 14.5654 15.1466 14.5654ZM14.6249 28.0314H12.1801V15.8683H14.6249V28.0314Z" fill="#8A733E"/>
<path d="M19.5004 -0.0410156C8.72423 -0.0410156 -0.0410156 8.72423 -0.0410156 19.5004C-0.0410156 30.2766 8.72423 39.0419 19.5004 39.0419C30.2766 39.0419 39.0419 30.2766 39.0419 19.5004C39.0419 8.72423 30.2766 -0.0410156 19.5004 -0.0410156ZM19.5004 37.7402C9.4433 37.7402 1.26061 29.5575 1.26061 19.5004C1.26061 9.4433 9.4433 1.26061 19.5004 1.26061C29.5575 1.26061 37.7402 9.4433 37.7402 19.5004C37.7402 29.5575 29.5575 37.7402 19.5004 37.7402Z" fill="#8A733E"/>
</g>
<defs>
<clipPath id="clip0">
<rect width="39" height="39" fill="white"/>
</clipPath>
</defs>
</svg>
