<svg width="327" height="400" viewBox="0 0 327 400" fill="none" xmlns="http://www.w3.org/2000/svg">
<path d="M312.136 0.0224609V110.48H127.338C125.107 110.455 122.893 110.872 120.824 111.707C118.755 112.542 116.872 113.779 115.284 115.345C113.992 116.625 112.937 118.123 112.169 119.772C113.887 91.7913 124.49 65.0897 142.434 43.5521C160.378 22.0144 184.726 6.76483 211.936 0.0224609H312.136Z" fill="url(#paint0_linear)"/>
<path d="M215.311 278.602C213.787 306.722 203.295 333.615 185.373 355.339C167.451 377.063 143.042 392.475 115.724 399.316H20.123V288.882H199.617C201.9 288.912 204.167 288.479 206.279 287.61C208.3 286.786 210.133 285.564 211.671 284.016C213.217 282.459 214.453 280.621 215.311 278.602Z" fill="url(#paint1_linear)"/>
<path d="M326.999 271.962C327.078 288.998 323.676 305.869 317.002 321.543C315.644 324.698 314.153 327.807 312.535 330.835C312.489 330.962 312.442 331.008 312.442 331.095C312.427 331.16 312.397 331.221 312.356 331.274C298.626 357.229 276.387 377.673 249.369 389.175C233.662 395.947 216.721 399.394 199.616 399.299H115.763L116.728 399.039C143.819 392.027 167.975 376.574 185.699 354.918C203.423 333.263 213.794 306.528 215.311 278.585V278.538C216.914 274.368 216.944 269.757 215.397 265.566C215.357 265.479 215.311 265.346 215.264 265.259C214.43 263.244 213.209 261.413 211.67 259.868C210.093 258.289 208.211 257.046 206.139 256.217C204.067 255.387 201.847 254.988 199.616 255.043H127.338C123.743 255.043 120.149 254.916 116.595 254.563C116.468 254.563 116.335 254.517 116.162 254.517C102.885 253.466 89.8764 250.208 77.6709 244.878C47.3007 231.805 23.118 207.558 10.1252 177.154C8.41429 173.236 6.92122 169.228 5.65266 165.146C1.86009 152.925 -0.0456327 140.196 0.00123525 127.4C-0.0749249 110.326 3.37147 93.4204 10.1252 77.7391C23.1934 47.4276 47.3593 23.2617 77.6709 10.1935C86.5179 6.32 95.8086 3.55236 105.333 1.95325C105.685 1.86079 105.945 1.82031 106.119 1.77408C106.206 1.75191 106.295 1.73834 106.385 1.73361C113.308 0.57573 120.317 -0.004144 127.338 2.22906e-05H211.936C184.726 6.74241 160.377 21.992 142.434 43.5296C124.49 65.0673 113.887 91.7689 112.169 119.749C111.984 120.074 111.823 120.412 111.689 120.761C110.824 122.858 110.391 125.108 110.418 127.377C110.393 129.753 110.839 132.109 111.73 134.311C111.823 134.556 111.941 134.79 112.082 135.01C112.837 136.766 113.924 138.359 115.284 139.703C116.866 141.278 118.748 142.52 120.818 143.355C122.889 144.191 125.105 144.603 127.338 144.568H199.616C216.685 144.477 233.593 147.863 249.312 154.519C279.873 167.366 304.183 191.677 317.031 222.238C318.728 226.199 320.208 230.25 321.463 234.373C325.175 246.556 327.041 259.227 326.999 271.962Z" fill="url(#paint2_linear)"/>
<g style="mix-blend-mode:multiply" opacity="0.16">
<g style="mix-blend-mode:multiply" opacity="0.16">
<path d="M215.309 278.602C213.785 306.722 203.293 333.615 185.371 355.339C167.449 377.063 143.04 392.475 115.722 399.316H89.0713C111.435 388.791 131.179 373.423 146.87 354.326C162.561 335.229 173.808 312.88 179.794 288.899H199.604C201.887 288.929 204.154 288.496 206.266 287.628C208.287 286.804 210.12 285.581 211.658 284.033C213.21 282.472 214.449 280.628 215.309 278.602Z" fill="black"/>
</g>
</g>
<g style="mix-blend-mode:multiply" opacity="0.16">
<g style="mix-blend-mode:multiply" opacity="0.16">
<path d="M235.957 0.0224609C211.277 18.3867 161.178 60.7725 148.551 110.48H127.338C125.107 110.455 122.893 110.872 120.824 111.707C118.755 112.542 116.872 113.779 115.284 115.345C113.992 116.625 112.937 118.123 112.169 119.772C113.887 91.7913 124.49 65.0897 142.434 43.5521C160.378 22.0144 184.726 6.76483 211.936 0.0224609H235.957Z" fill="black"/>
</g>
</g>
<g style="mix-blend-mode:multiply" opacity="0.25">
<g style="mix-blend-mode:multiply" opacity="0.25">
<path d="M312.139 33.0684V110.501H157.805C170.645 109.23 183.531 108.357 196.377 107.739C209.222 107.121 222.109 106.583 234.949 106.381C247.835 105.988 260.68 106.034 273.567 105.901C285.124 106.034 296.577 106.034 308.111 106.294C308.238 101.255 308.331 96.2108 308.544 91.1314C308.764 84.6826 308.984 78.2395 309.382 71.7964C310.018 58.887 310.867 45.9546 312.139 33.0684Z" fill="black"/>
</g>
</g>
<g style="mix-blend-mode:screen" opacity="0.7">
<g style="mix-blend-mode:screen" opacity="0.7">
<path d="M326.998 271.962C327.077 288.996 323.675 305.868 317.001 321.542C315.643 324.697 314.152 327.806 312.534 330.834C312.973 329.649 314.418 325.875 316.579 320.091C319.926 310.255 322.118 300.062 323.109 289.719C323.733 282.869 323.866 275.982 323.507 269.112C323.068 261.516 322.012 253.967 320.352 246.542C319.492 242.701 318.424 238.911 317.151 235.187C315.66 231.333 314.169 227.426 312.678 223.525C309.333 215.855 305.22 208.543 300.405 201.7C295.713 194.766 290.288 188.357 284.225 182.584C278.384 176.982 272.046 171.922 265.288 167.467C258.879 163.305 252.151 159.655 245.167 156.552C238.877 153.845 232.385 151.631 225.751 149.929C215.653 147.426 205.329 145.943 194.934 145.504C187.307 144.926 182.967 144.585 182.967 144.585H199.58C216.649 144.494 233.558 147.879 249.276 154.535C279.837 167.383 304.147 191.693 316.995 222.254C318.693 226.215 320.172 230.266 321.427 234.389C325.149 246.565 327.026 259.229 326.998 271.962Z" fill="white"/>
</g>
</g>
<g style="mix-blend-mode:multiply" opacity="0.25">
<g style="mix-blend-mode:multiply" opacity="0.25">
<path d="M101.913 399.301H20.123V315.801C21.1285 322.77 21.7409 329.669 22.3997 336.667C22.9255 343.636 23.4109 350.605 23.7172 357.528C24.1564 364.497 24.2432 371.471 24.5032 378.44L24.6823 394.742C29.9813 394.828 35.2859 394.828 40.5907 394.961C47.3863 395.227 54.1819 395.314 61.0178 395.753C74.6495 396.412 88.2811 397.417 101.913 399.301Z" fill="black"/>
</g>
</g>
<g style="mix-blend-mode:screen" opacity="0.7">
<g style="mix-blend-mode:screen" opacity="0.7">
<path d="M116.162 254.516C102.885 253.465 89.8763 250.207 77.6709 244.877C47.3007 231.804 23.118 207.557 10.1252 177.153C8.41429 173.235 6.92122 169.227 5.65266 165.145C1.86009 152.924 -0.0456327 140.195 0.00123525 127.399C-0.0749249 110.325 3.37147 93.4194 10.1252 77.7381C23.1934 47.4264 47.3593 23.2605 77.6709 10.1924C86.5178 6.31887 95.8086 3.55126 105.333 1.95215C100.555 3.10107 95.8427 4.50533 91.2158 6.15892C59.8272 17.3696 33.8574 40.0663 18.5446 69.6713C8.41804 89.1115 3.65123 110.898 4.73388 132.791C5.07347 143.791 6.9782 154.687 10.391 165.151C11.3964 167.82 12.3616 170.496 13.3266 173.125L14.0259 175.095L14.2048 175.581C14.2452 175.663 14.2744 175.751 14.2916 175.841L14.7307 176.806L16.3949 180.533C18.6085 185.358 21.1413 190.03 23.9764 194.517C29.3512 203.061 35.6915 210.959 42.8723 218.053C49.3899 224.403 56.5252 230.087 64.1721 235.019C70.7002 239.161 77.546 242.78 84.6456 245.842C90.1855 248.198 95.9005 250.119 101.739 251.586C106.494 252.805 111.308 253.783 116.162 254.516Z" fill="white"/>
</g>
</g>
<g style="mix-blend-mode:screen" opacity="0.7">
<g style="mix-blend-mode:screen" opacity="0.7">
<path d="M211.935 0.0224609C184.726 6.76483 160.377 22.0144 142.433 43.5521C124.489 65.0897 113.887 91.7913 112.168 119.772C111.983 120.096 111.823 120.434 111.688 120.783L112.041 119.685C111.908 116.218 111.908 112.716 111.908 109.208C112.168 105.707 112.561 102.199 112.914 98.6452C113.491 95.1781 114.271 91.711 114.93 88.2438C115.809 84.7767 116.993 81.4482 117.999 77.9869C119.154 74.6122 120.587 71.3646 121.986 68.0362C123.477 64.7944 125.233 61.6798 126.811 58.4784C128.649 55.3696 130.665 52.434 132.59 49.3656C134.693 46.4763 136.883 43.6217 139.079 40.8133C141.442 38.0974 143.944 35.5144 146.354 32.8793C148.983 30.4292 151.555 27.9733 154.288 25.6041L162.835 19.0744C165.816 17.1039 168.838 15.2605 171.907 13.3767C175.108 11.7991 178.223 10.0887 181.418 8.55162L191.329 4.69726C194.796 3.68601 198.165 2.68054 201.586 1.80798C205.007 1.11455 208.474 0.54831 211.935 0.0224609Z" fill="white"/>
</g>
</g>
<g style="mix-blend-mode:screen" opacity="0.7">
<g style="mix-blend-mode:screen" opacity="0.7">
<path d="M216.104 278.541C216.144 282.135 216.144 285.643 216.058 289.191C215.838 292.744 215.399 296.252 215.006 299.8C214.393 303.306 213.693 306.814 212.903 310.323C212.024 313.79 210.886 317.205 209.875 320.62C208.719 324.041 207.205 327.283 205.83 330.617C204.345 333.905 202.634 337.06 200.964 340.262C199.167 343.37 197.156 346.352 195.226 349.421C193.123 352.356 190.927 355.199 188.737 358.054C186.373 360.776 183.871 363.405 181.461 366.074C178.832 368.577 176.261 371.032 173.527 373.442L164.975 380.018C161.993 381.99 158.97 383.916 155.903 385.797L146.391 390.749L136.441 394.736L126.224 397.718C123.595 398.244 121.023 398.77 118.423 399.209L119.001 399.295L115.973 399.648C115.932 399.694 115.84 399.694 115.8 399.694L115.753 399.295L115.713 398.903L116.718 399.035C143.809 392.023 167.966 376.571 185.69 354.914C203.413 333.259 213.784 306.524 215.301 278.581V278.535C216.151 276.449 216.569 274.211 216.526 271.959C216.844 274.158 216.7 276.4 216.104 278.541Z" fill="white"/>
</g>
</g>
<defs>
<linearGradient id="paint0_linear" x1="312.136" y1="59.8971" x2="120.368" y2="59.8971" gradientUnits="userSpaceOnUse">
<stop stop-color="#1F2430"/>
<stop offset="1" stop-color="#8A733E"/>
</linearGradient>
<linearGradient id="paint1_linear" x1="12.5107" y1="338.959" x2="196.768" y2="338.959" gradientUnits="userSpaceOnUse">
<stop stop-color="#8A733E"/>
<stop offset="0.973958" stop-color="#1F2430"/>
</linearGradient>
<linearGradient id="paint2_linear" x1="163.5" y1="-3.19441" x2="163.5" y2="410.082" gradientUnits="userSpaceOnUse">
<stop stop-color="#8A733E"/>
<stop offset="1" stop-color="#1F2430"/>
</linearGradient>
</defs>
</svg>
